General
Unique ID                                : 60076623588045408075950931293085636395 (0x2D32563AA91D126E2364BA69D078172B)
Complete name                            : Lawrence.of.Arabia.1962.UHD.BluRay.2160p.TrueHD.Atmos.7.1.DV.HEVC.REMUX-FraMeSToR.mkv
Format                                   : Matroska
Format version                           : Version 4
File size                                : 97.9 GiB
Duration                                 : 3 h 47 min
Overall bit rate mode                    : Variable
Overall bit rate                         : 61.7 Mb/s
Movie name                               : Lawrence of Arabia (1962) DV
Encoded date                             : UTC 2021-02-27 01:55:30
Writing application                      : mkvmerge v53.0.0 ('Fool's Gold') 64-bit
Writing library                          : libebml v1.4.1 + libmatroska v1.6.2
IMDB                                     : tt0056172
TMDB                                     : movie/947

Video
ID                                       : 1
Format                                   : HEVC
Format/Info                              : High Efficiency Video Coding
Format profile                           : Main 10@L5.1@High
HDR format                               : Dolby Vision, Version 1.0, dvhe.07.06, BL+EL+RPU, Blu-ray compatible / SMPTE ST 2086, HDR10 compatible
Codec ID                                 : V_MPEGH/ISO/HEVC
Duration                                 : 3 h 47 min
Bit rate                                 : 57.8 Mb/s
Width                                    : 3 840 pixels
Height                                   : 2 160 pixels
Display aspect ratio                     : 16:9
Frame rate mode                          : Constant
Frame rate                               : 23.976 (24000/1001) FPS
Color space                              : YUV
Chroma subsampling                       : 4:2:0 (Type 2)
Bit depth                                : 10 bits
Bits/(Pixel*Frame)                       : 0.290
Stream size                              : 91.6 GiB (94%)
Default                                  : Yes
Forced                                   : No
Color range                              : Limited
Color primaries                          : BT.2020
Transfer characteristics                 : PQ
Matrix coefficients                      : BT.2020 non-constant
Mastering display color primaries        : Display P3
Mastering display luminance              : min: 0.0001 cd/m2, max: 1000 cd/m2
Maximum Content Light Level              : 1289 cd/m2
Maximum Frame-Average Light Level        : 364 cd/m2

Audio #1
ID                                       : 2
Format                                   : MLP FBA 16-ch
Format/Info                              : Meridian Lossless Packing FBA with 16-channel presentation
Commercial name                          : Dolby TrueHD with Dolby Atmos
Codec ID                                 : A_TRUEHD
Duration                                 : 3 h 47 min
Bit rate mode                            : Variable
Bit rate                                 : 2 719 kb/s
Maximum bit rate                         : 4 176 kb/s
Channel(s)                               : 8 channels
Channel layout                           : L R C LFE Ls Rs Lb Rb
Sampling rate                            : 48.0 kHz
Frame rate                               : 1 200.000 FPS (40 SPF)
Compression mode                         : Lossless
Stream size                              : 4.31 GiB (4%)
Title                                    : TrueHD Atmos 7.1
Language                                 : English
Default                                  : Yes
Forced                                   : No
Number of dynamic objects                : 11
Bed channel count                        : 1 channel
Bed channel configuration                : LFE

Audio #2
ID                                       : 3
Format                                   : AC-3
Format/Info                              : Audio Coding 3
Commercial name                          : Dolby Digital
Codec ID                                 : A_AC3
Duration                                 : 3 h 47 min
Bit rate mode                            : Constant
Bit rate                                 : 640 kb/s
Channel(s)                               : 6 channels
Channel layout                           : L R C LFE Ls Rs
Sampling rate                            : 48.0 kHz
Frame rate                               : 31.250 FPS (1536 SPF)
Compression mode                         : Lossy
Stream size                              : 1.01 GiB (1%)
Title                                    : AC-3 5.1
Language                                 : English
Service kind                             : Complete Main
Default                                  : No
Forced                                   : No

Text #1
ID                                       : 4
Format                                   : PGS
Codec ID                                 : S_HDMV/PGS
Codec ID/Info                            : Picture based subtitle format used on BDs/HD-DVDs
Duration                                 : 3 h 35 min
Bit rate                                 : 21.2 kb/s
Count of elements                        : 3763
Stream size                              : 32.6 MiB (0%)
Title                                    : English
Language                                 : English
Default                                  : No
Forced                                   : No

Text #2
ID                                       : 5
Format                                   : PGS
Codec ID                                 : S_HDMV/PGS
Codec ID/Info                            : Picture based subtitle format used on BDs/HD-DVDs
Duration                                 : 3 h 43 min
Bit rate                                 : 22.5 kb/s
Count of elements                        : 4173
Stream size                              : 35.9 MiB (0%)
Title                                    : English (SDH)
Language                                 : English
Default                                  : No
Forced                                   : No

Text #3
ID                                       : 6
Format                                   : PGS
Codec ID                                 : S_HDMV/PGS
Codec ID/Info                            : Picture based subtitle format used on BDs/HD-DVDs
Duration                                 : 3 h 39 min
Bit rate                                 : 11.6 kb/s
Count of elements                        : 3681
Stream size                              : 18.3 MiB (0%)
Title                                    : Arabic
Language                                 : Arabic
Default                                  : No
Forced                                   : No

Text #4
ID                                       : 7
Format                                   : PGS
Codec ID                                 : S_HDMV/PGS
Codec ID/Info                            : Picture based subtitle format used on BDs/HD-DVDs
Duration                                 : 3 h 39 min
Bit rate                                 : 19.5 kb/s
Count of elements                        : 3693
Stream size                              : 30.7 MiB (0%)
Title                                    : Chinese (Mandarin Simplified)
Language                                 : Chinese
Default                                  : No
Forced                                   : No

Text #5
ID                                       : 8
Format                                   : PGS
Codec ID                                 : S_HDMV/PGS
Codec ID/Info                            : Picture based subtitle format used on BDs/HD-DVDs
Duration                                 : 3 h 39 min
Bit rate                                 : 20.1 kb/s
Count of elements                        : 3691
Stream size                              : 31.6 MiB (0%)
Title                                    : Chinese (Mandarin Traditional)
Language                                 : Chinese
Default                                  : No
Forced                                   : No

Text #6
ID                                       : 9
Format                                   : PGS
Codec ID                                 : S_HDMV/PGS
Codec ID/Info                            : Picture based subtitle format used on BDs/HD-DVDs
Duration                                 : 3 h 39 min
Bit rate                                 : 18.1 kb/s
Count of elements                        : 3681
Stream size                              : 28.5 MiB (0%)
Title                                    : Czech
Language                                 : Czech
Default                                  : No
Forced                                   : No

Text #7
ID                                       : 10
Format                                   : PGS
Codec ID                                 : S_HDMV/PGS
Codec ID/Info                            : Picture based subtitle format used on BDs/HD-DVDs
Duration                                 : 3 h 39 min
Bit rate                                 : 17.7 kb/s
Count of elements                        : 2765
Stream size                              : 27.7 MiB (0%)
Title                                    : Danish
Language                                 : Danish
Default                                  : No
Forced                                   : No

Text #8
ID                                       : 11
Format                                   : PGS
Codec ID                                 : S_HDMV/PGS
Codec ID/Info                            : Picture based subtitle format used on BDs/HD-DVDs
Duration                                 : 3 h 39 min
Bit rate                                 : 18.8 kb/s
Count of elements                        : 2601
Stream size                              : 29.5 MiB (0%)
Title                                    : Dutch
Language                                 : Dutch
Default                                  : No
Forced                                   : No

Text #9
ID                                       : 12
Format                                   : PGS
Codec ID                                 : S_HDMV/PGS
Codec ID/Info                            : Picture based subtitle format used on BDs/HD-DVDs
Duration                                 : 3 h 36 min
Bit rate                                 : 19.3 kb/s
Count of elements                        : 2631
Stream size                              : 29.8 MiB (0%)
Title                                    : Finnish
Language                                 : Finnish
Default                                  : No
Forced                                   : No

Text #10
ID                                       : 13
Format                                   : PGS
Codec ID                                 : S_HDMV/PGS
Codec ID/Info                            : Picture based subtitle format used on BDs/HD-DVDs
Duration                                 : 3 h 39 min
Bit rate                                 : 20.7 kb/s
Count of elements                        : 3677
Stream size                              : 32.4 MiB (0%)
Title                                    : French
Language                                 : French
Default                                  : No
Forced                                   : No

Text #11
ID                                       : 14
Format                                   : PGS
Codec ID                                 : S_HDMV/PGS
Codec ID/Info                            : Picture based subtitle format used on BDs/HD-DVDs
Duration                                 : 3 h 39 min
Bit rate                                 : 24.8 kb/s
Count of elements                        : 3685
Stream size                              : 38.9 MiB (0%)
Title                                    : German
Language                                 : German
Default                                  : No
Forced                                   : No

Text #12
ID                                       : 15
Format                                   : PGS
Codec ID                                 : S_HDMV/PGS
Codec ID/Info                            : Picture based subtitle format used on BDs/HD-DVDs
Duration                                 : 3 h 36 min
Bit rate                                 : 19.0 kb/s
Count of elements                        : 3671
Stream size                              : 29.5 MiB (0%)
Title                                    : Greek
Language                                 : Greek
Default                                  : No
Forced                                   : No

Text #13
ID                                       : 16
Format                                   : PGS
Codec ID                                 : S_HDMV/PGS
Codec ID/Info                            : Picture based subtitle format used on BDs/HD-DVDs
Duration                                 : 3 h 39 min
Bit rate                                 : 15.0 kb/s
Count of elements                        : 3683
Stream size                              : 23.6 MiB (0%)
Title                                    : Hebrew
Language                                 : Hebrew
Default                                  : No
Forced                                   : No

Text #14
ID                                       : 17
Format                                   : PGS
Codec ID                                 : S_HDMV/PGS
Codec ID/Info                            : Picture based subtitle format used on BDs/HD-DVDs
Duration                                 : 3 h 39 min
Bit rate                                 : 16.3 kb/s
Count of elements                        : 3681
Stream size                              : 25.7 MiB (0%)
Title                                    : Hindi
Language                                 : Hindi
Default                                  : No
Forced                                   : No

Text #15
ID                                       : 18
Format                                   : PGS
Codec ID                                 : S_HDMV/PGS
Codec ID/Info                            : Picture based subtitle format used on BDs/HD-DVDs
Duration                                 : 3 h 39 min
Bit rate                                 : 17.0 kb/s
Count of elements                        : 3677
Stream size                              : 26.8 MiB (0%)
Title                                    : Hungarian
Language                                 : Hungarian
Default                                  : No
Forced                                   : No

Text #16
ID                                       : 19
Format                                   : PGS
Codec ID                                 : S_HDMV/PGS
Codec ID/Info                            : Picture based subtitle format used on BDs/HD-DVDs
Duration                                 : 3 h 39 min
Bit rate                                 : 18.7 kb/s
Count of elements                        : 3677
Stream size                              : 29.4 MiB (0%)
Title                                    : Italian
Language                                 : Italian
Default                                  : No
Forced                                   : No

Text #17
ID                                       : 20
Format                                   : PGS
Codec ID                                 : S_HDMV/PGS
Codec ID/Info                            : Picture based subtitle format used on BDs/HD-DVDs
Duration                                 : 3 h 35 min
Bit rate                                 : 17.7 kb/s
Count of elements                        : 3531
Stream size                              : 27.2 MiB (0%)
Title                                    : Japanese
Language                                 : Japanese
Default                                  : No
Forced                                   : No

Text #18
ID                                       : 21
Format                                   : PGS
Codec ID                                 : S_HDMV/PGS
Codec ID/Info                            : Picture based subtitle format used on BDs/HD-DVDs
Duration                                 : 3 h 38 min
Bit rate                                 : 15.4 kb/s
Count of elements                        : 3693
Stream size                              : 24.1 MiB (0%)
Title                                    : Korean
Language                                 : Korean
Default                                  : No
Forced                                   : No

Text #19
ID                                       : 22
Format                                   : PGS
Codec ID                                 : S_HDMV/PGS
Codec ID/Info                            : Picture based subtitle format used on BDs/HD-DVDs
Duration                                 : 3 h 36 min
Bit rate                                 : 16.7 kb/s
Count of elements                        : 2633
Stream size                              : 25.8 MiB (0%)
Title                                    : Norwegian
Language                                 : Norwegian
Default                                  : No
Forced                                   : No

Text #20
ID                                       : 23
Format                                   : PGS
Codec ID                                 : S_HDMV/PGS
Codec ID/Info                            : Picture based subtitle format used on BDs/HD-DVDs
Duration                                 : 3 h 39 min
Bit rate                                 : 17.3 kb/s
Count of elements                        : 3677
Stream size                              : 27.2 MiB (0%)
Title                                    : Polish
Language                                 : Polish
Default                                  : No
Forced                                   : No

Text #21
ID                                       : 24
Format                                   : PGS
Codec ID                                 : S_HDMV/PGS
Codec ID/Info                            : Picture based subtitle format used on BDs/HD-DVDs
Duration                                 : 3 h 41 min
Bit rate                                 : 18.6 kb/s
Count of elements                        : 3697
Stream size                              : 29.5 MiB (0%)
Title                                    : Portuguese (Brazilian)
Language                                 : Portuguese
Default                                  : No
Forced                                   : No

Text #22
ID                                       : 25
Format                                   : PGS
Codec ID                                 : S_HDMV/PGS
Codec ID/Info                            : Picture based subtitle format used on BDs/HD-DVDs
Duration                                 : 3 h 41 min
Bit rate                                 : 21.8 kb/s
Count of elements                        : 3681
Stream size                              : 34.6 MiB (0%)
Title                                    : Portuguese (Iberian)
Language                                 : Portuguese
Default                                  : No
Forced                                   : No

Text #23
ID                                       : 26
Format                                   : PGS
Codec ID                                 : S_HDMV/PGS
Codec ID/Info                            : Picture based subtitle format used on BDs/HD-DVDs
Duration                                 : 3 h 41 min
Bit rate                                 : 19.6 kb/s
Count of elements                        : 3693
Stream size                              : 31.0 MiB (0%)
Title                                    : Romanian
Language                                 : Romanian
Default                                  : No
Forced                                   : No

Text #24
ID                                       : 27
Format                                   : PGS
Codec ID                                 : S_HDMV/PGS
Codec ID/Info                            : Picture based subtitle format used on BDs/HD-DVDs
Duration                                 : 3 h 38 min
Bit rate                                 : 22.5 kb/s
Count of elements                        : 3791
Stream size                              : 35.1 MiB (0%)
Title                                    : Russian
Language                                 : Russian
Default                                  : No
Forced                                   : No

Text #25
ID                                       : 28
Format                                   : PGS
Codec ID                                 : S_HDMV/PGS
Codec ID/Info                            : Picture based subtitle format used on BDs/HD-DVDs
Duration                                 : 3 h 41 min
Bit rate                                 : 18.2 kb/s
Count of elements                        : 3681
Stream size                              : 28.8 MiB (0%)
Title                                    : Spanish (Castilian)
Language                                 : Spanish
Default                                  : No
Forced                                   : No

Text #26
ID                                       : 29
Format                                   : PGS
Codec ID                                 : S_HDMV/PGS
Codec ID/Info                            : Picture based subtitle format used on BDs/HD-DVDs
Duration                                 : 3 h 38 min
Bit rate                                 : 18.3 kb/s
Count of elements                        : 3685
Stream size                              : 28.6 MiB (0%)
Title                                    : Spanish (Latin American)
Language                                 : Spanish
Default                                  : No
Forced                                   : No

Text #27
ID                                       : 30
Format                                   : PGS
Codec ID                                 : S_HDMV/PGS
Codec ID/Info                            : Picture based subtitle format used on BDs/HD-DVDs
Duration                                 : 3 h 36 min
Bit rate                                 : 16.7 kb/s
Count of elements                        : 2629
Stream size                              : 25.9 MiB (0%)
Title                                    : Swedish
Language                                 : Swedish
Default                                  : No
Forced                                   : No

Text #28
ID                                       : 31
Format                                   : PGS
Codec ID                                 : S_HDMV/PGS
Codec ID/Info                            : Picture based subtitle format used on BDs/HD-DVDs
Duration                                 : 3 h 36 min
Bit rate                                 : 20.0 kb/s
Count of elements                        : 3689
Stream size                              : 30.9 MiB (0%)
Title                                    : Thai
Language                                 : Thai
Default                                  : No
Forced                                   : No

Text #29
ID                                       : 32
Format                                   : PGS
Codec ID                                 : S_HDMV/PGS
Codec ID/Info                            : Picture based subtitle format used on BDs/HD-DVDs
Duration                                 : 3 h 39 min
Bit rate                                 : 18.6 kb/s
Count of elements                        : 3685
Stream size                              : 29.2 MiB (0%)
Title                                    : Turkish
Language                                 : Turkish
Default                                  : No
Forced                                   : No

Menu
00:00:00.000                             : en:Overture 
00:06:10.333                             : en:Death of a Legend
00:09:31.000                             : en:On Staff, in Cairo
00:11:40.160                             : en:Dryden & Murray
00:12:26.792                             : en:A Chat With the General
00:16:25.777                             : en:"Find Prince Feisal"
00:17:43.730                             : en:The Desert Journey Begins
00:20:51.001                             : en:Friendship
00:23:57.130                             : en:Ali at the Well
00:34:49.969                             : en:Colonel Brighton
00:36:46.500                             : en:What Modern Weapons Do
00:43:36.491                             : en:In Feisal's Tent
00:49:29.678                             : en:"Time To Be Great Again"
00:52:22.726                             : en:"We Need a Miracle"
00:55:06.960                             : en:"The Nefud Cannot Be Crossed!"
00:56:26.386                             : en:"In Whose Name Do You Ride?"
00:59:04.500                             : en:At the Oasis
00:59:54.636                             : en:"That Is the Railway"
01:01:21.932                             : en:"You Were Drifting"
01:03:04.902                             : en:Lost in the Desert
01:16:24.082                             : en:Rescue of Gasim
01:19:03.417                             : en:"Nothing is Written"
01:22:49.342                             : en:El Aurens
01:24:52.089                             : en:Robes of a Sharif
01:26:16.342                             : en:Auda aby Tayi & Son
01:29:39.501                             : en:Ali Vs. Auda
01:30:24.216                             : en:"Dine With Me at Wadi Rum!"
01:33:14.422                             : en:Execution of Gasim
01:46:48.492                             : en:Attack on Akaba
01:49:08.632                             : en:"The Miracle Is Accomplished"
01:51:08.334                             : en:No Gold in Akaba
01:54:43.759                             : en:Quicksand
01:59:18.971                             : en:Suez Canal
02:03:19.357                             : en:The Officers' Bar
02:07:58.555                             : en:General Allenby
02:12:40.000                             : en:Planning the Campaign
02:18:58.545                             : en:Entr'acte
02:23:39.787                             : en:Jackson Bently, Journalist
02:30:05.505                             : en:Destroying the Turkish Railway
02:36:47.324                             : en:"It's Clean"
02:39:27.021                             : en:Something Honorable
02:43:35.608                             : en:Detonator 
02:46:28.102                             : en:Capture in Deraa
02:51:11.772                             : en:"Beat Him"
02:57:08.418                             : en:"Sleep... Eat"
02:58:40.518                             : en:"Any Man Is What I Am"
03:02:20.062                             : en:Entering Jerusalem
03:09:06.318                             : en:A Clash of Temperment
03:10:54.955                             : en:Bodyguard 
03:14:18.147                             : en:British Staff Meeting
03:15:14.052                             : en:Roads to Damascus
03:17:50.204                             : en:"No Prisoners!"
03:25:43.092                             : en:Chaos in Damascus
03:26:16.710                             : en:Turkish Hospital
03:27:36.957                             : en:Going Home
03:43:30.081                             : en:End Credits & Exit Music
